<svg width="14" height="14" viewBox="0 0 14 14" fill="none" xmlns="http://www.w3.org/2000/svg">
<path d="M2.91683 12.25L11.0835 12.25C11.4057 12.25 11.6668 11.9888 11.6668 11.6667L11.6668 5.83333C11.6668 5.51117 11.4057 5.25 11.0835 5.25L2.91683 5.25C2.59466 5.25 2.3335 5.51117 2.3335 5.83333L2.3335 11.6667C2.3335 11.9888 2.59466 12.25 2.91683 12.25Z" stroke="white" stroke-opacity="0.5" stroke-width="2" stroke-linecap="round" stroke-linejoin="round"/>
<path d="M5.38462 5.25L8.61538 5.25C8.68973 5.25 8.75 5.18973 8.75 5.11538L8.75 3.5C8.75 2.5335 7.9665 1.75 7 1.75C6.0335 1.75 5.25 2.5335 5.25 3.5L5.25 5.11538C5.25 5.18973 5.31027 5.25 5.38462 5.25Z" stroke="white" stroke-opacity="0.5" stroke-width="2" stroke-linecap="round" stroke-linejoin="round"/>
</svg>
