<svg width="24" height="24" viewBox="0 0 24 24" fill="none" xmlns="http://www.w3.org/2000/svg">
<g style="mix-blend-mode:overlay">
<path fill-rule="evenodd" clip-rule="evenodd" d="M15.4242 5.57576C15.1899 5.34145 14.81 5.34145 14.5756 5.57576C14.3413 5.81007 14.3413 6.18997 14.5756 6.42429L19.5514 11.4H2.9999C2.66853 11.4 2.3999 11.6687 2.3999 12C2.3999 12.3314 2.66853 12.6 2.9999 12.6H19.5514L14.5756 17.5758C14.3413 17.8101 14.3413 18.19 14.5756 18.4243C14.81 18.6586 15.1899 18.6586 15.4242 18.4243L21.4242 12.4243C21.4817 12.3668 21.5251 12.3005 21.5544 12.2297C21.5837 12.159 21.5999 12.0814 21.5999 12C21.5999 11.9187 21.5837 11.8411 21.5544 11.7704C21.5251 11.6996 21.4817 11.6333 21.4242 11.5758L15.4242 5.57576Z" fill="black"/>
</g>
</svg>
