<svg width="36" height="36" viewBox="0 0 36 36" fill="none" xmlns="http://www.w3.org/2000/svg">
<path d="M29.985 15.4751C28.9207 13.6704 25.8026 12 23.9438 12C21.4853 12 20.451 13.4915 18.757 13.4915C17.0031 13.4915 15.3991 12.0895 13.2854 12.0895C10.3923 12.1044 6 14.7592 6 21.0085C6 26.6909 11.1868 32.9999 14.1249 32.9999C15.9088 33.0148 16.3435 31.8813 18.757 31.8813C21.1705 31.8663 21.6952 33.0148 23.4791 32.9999C25.4878 32.9849 27.0468 30.7925 28.2011 29.0624C29.0256 27.8245 29.3554 27.1831 30 25.7812C25.263 24.6029 24.3186 17.0412 29.985 15.4751Z" stroke="white" stroke-width="2" stroke-miterlimit="10" stroke-linecap="round" stroke-linejoin="round"/>
<path d="M22.9006 7.395C23.95 6.255 24.7295 4.65 24.4447 3C22.7357 3.105 20.7869 4.05 19.6177 5.25C18.5683 6.345 17.7439 7.98 18.0736 9.555C19.9325 9.6 21.7913 8.625 22.9006 7.395Z" stroke="white" stroke-width="2" stroke-miterlimit="10" stroke-linecap="round" stroke-linejoin="round"/>
</svg>
