<svg width="30" height="30" viewBox="0 0 30 30" fill="none" xmlns="http://www.w3.org/2000/svg">
<path d="M3.75 11.25V8.75C3.75 8.05964 4.30964 7.5 5 7.5H25C25.6904 7.5 26.25 8.05964 26.25 8.75V11.25M3.75 18.75V21.25C3.75 21.9404 4.30964 22.5 5 22.5H25C25.6904 22.5 26.25 21.9404 26.25 21.25V18.75" stroke="white" stroke-width="2" stroke-linecap="round" stroke-linejoin="round"/>
<path d="M26.25 18.75C24.1789 18.75 22.5 17.0711 22.5 15C22.5 12.9289 24.1789 11.25 26.25 11.25" stroke="white" stroke-width="2" stroke-linecap="round" stroke-linejoin="round"/>
<path d="M3.75 11.25C5.82107 11.25 7.5 12.9289 7.5 15C7.5 17.0711 5.82107 18.75 3.75 18.75" stroke="white" stroke-width="2" stroke-linecap="round" stroke-linejoin="round"/>
<path d="M17.5 7.5V22.5" stroke="white" stroke-width="2" stroke-linecap="round" stroke-linejoin="round"/>
</svg>
