<svg width="64" height="69" viewBox="0 0 64 69" fill="none" xmlns="http://www.w3.org/2000/svg">
<path d="M26.7493 5.34704C29.8476 3.55827 33.6647 3.55827 36.763 5.34704L54.4999 15.5875C57.5982 17.3762 59.5068 20.682 59.5068 24.2596V44.7404C59.5068 48.318 57.5982 51.6237 54.4999 53.4125L36.763 63.653C33.6647 65.4417 29.8476 65.4417 26.7493 63.653L9.01236 53.4125C5.91412 51.6237 4.00553 48.318 4.00553 44.7404V24.2596C4.00553 20.682 5.91412 17.3763 9.01236 15.5875L26.7493 5.34704Z" fill="#25787B" fill-opacity="0.5"/>
<path d="M37.7643 3.61262C34.0465 1.46611 29.4658 1.46611 25.748 3.61262L8.01099 13.8531C4.29311 15.9996 2.00281 19.9665 2.00281 24.2596V44.7404C2.00281 49.0335 4.29311 53.0004 8.01099 55.1469L25.748 65.3874C29.4658 67.5339 34.0465 67.5339 37.7643 65.3874L55.5013 55.1469C59.2192 53.0004 61.5095 49.0335 61.5095 44.7404V24.2596C61.5095 19.9665 59.2192 15.9996 55.5013 13.8531L37.7643 3.61262Z" stroke="#25787B" stroke-opacity="0.3" stroke-width="4"/>
</svg>
